<svg xmlns="http://www.w3.org/2000/svg" width="850" height="330" viewBox="0 0 850 330">
  <rect width="100%" height="100%" fill="#fff"/>
  <defs><marker id="arrow" markerWidth="10" markerHeight="10" refX="8" refY="3" orient="auto" markerUnits="strokeWidth"><path d="M0,0 L0,6 L9,3 z" fill="#333"/></marker></defs>
  <text x="30" y="35" font-size="22" font-family="sans-serif">NFA: 非決定性は「複数の可能性を同時に追跡する」</text>
  <g stroke="#333" stroke-width="2" fill="none" marker-end="url(#arrow)">
    <line x1="90" y1="165" x2="150" y2="165"/>
    <line x1="210" y1="165" x2="340" y2="100"/>
    <line x1="210" y1="165" x2="340" y2="230"/>
    <line x1="410" y1="100" x2="540" y2="165"/>
    <line x1="410" y1="230" x2="540" y2="165"/>
    <path d="M180 130 C130 80, 130 250, 180 200"/>
  </g>
  <g font-family="sans-serif" font-size="17" stroke="#333" stroke-width="2" fill="#f8f8f8">
    <circle cx="180" cy="165" r="34"/><text x="170" y="171" fill="#111" stroke="none">q0</text>
    <circle cx="370" cy="100" r="34"/><text x="360" y="106" fill="#111" stroke="none">q1</text>
    <circle cx="370" cy="230" r="34"/><text x="360" y="236" fill="#111" stroke="none">q2</text>
    <circle cx="570" cy="165" r="34"/><circle cx="570" cy="165" r="27"/><text x="560" y="171" fill="#111" stroke="none">q3</text>
  </g>
  <g font-family="sans-serif" font-size="16" fill="#111">
    <text x="245" y="110">a</text><text x="245" y="225">a</text><text x="465" y="112">b</text><text x="465" y="225">c</text><text x="130" y="82">0,1</text>
    <text x="70" y="295">同じ入力記号から複数の遷移先がある。受理経路が1本でもあれば受理。</text>
  </g>
</svg>
